<?xml version="1.0" encoding="UTF-8"?>
<svg id="_Слой_2" data-name="Слой 2" xmlns="http://www.w3.org/2000/svg" viewBox="0 0 1200 1200">
  <defs>
    <style>
      .cls-1 {
        fill: #fff;
      }
    </style>
  </defs>
  <g>
    <polygon class="cls-1" points="760.38 129 600 296.67 439.62 129 246.44 129 347.29 240.78 381.31 240.78 600 472.31 818.69 240.78 852.71 240.78 953.56 129 760.38 129"/>
    <polygon class="cls-1" points="439.62 1045.09 600 877.42 760.38 1045.09 953.56 1045.09 852.71 933.31 818.69 933.31 600 701.78 381.31 933.31 347.29 933.31 246.44 1045.09 439.62 1045.09"/>
  </g>
  <g>
    <polygon class="cls-1" points="271.53 864.3 271.53 825.42 493.94 588.02 494.86 587.04 493.94 586.07 271.53 348.67 271.53 309.79 170.68 199.23 170.68 415.17 330.16 587.04 170.68 758.91 170.68 974.86 271.53 864.3"/>
    <polygon class="cls-1" points="928.47 309.79 928.47 348.67 706.06 586.07 705.14 587.04 706.06 588.02 928.47 825.42 928.47 864.3 1029.32 974.86 1029.32 758.91 869.84 587.04 1029.32 415.17 1029.32 199.23 928.47 309.79"/>
  </g>
</svg>